<svg width="88" height="84" viewBox="0 0 88 84" fill="none" xmlns="http://www.w3.org/2000/svg">
<ellipse cx="43.9519" cy="41.6296" rx="43.9519" ry="41.6296" fill="#D5E6FF"/>
<path fill-rule="evenodd" clip-rule="evenodd" d="M31.7331 21.8555C29.3787 21.8555 27.47 23.7642 27.47 26.1186V57.4874C27.47 59.8419 29.3787 61.7505 31.7331 61.7505H56.1707C58.5252 61.7505 60.4339 59.8418 60.4339 57.4874V26.1186C60.4339 23.7641 58.5252 21.8555 56.1707 21.8555H31.7331ZM35.2669 39.757H52.0958C52.8765 39.757 53.4838 40.3388 53.5271 41.0868C53.5271 41.8349 52.9199 42.4167 52.1392 42.4167H35.2669C34.4861 42.4167 33.8789 41.8349 33.8789 41.0868C33.8789 40.3388 34.4861 39.757 35.2669 39.757ZM52.0958 46.1974H35.2669C34.4861 46.1974 33.8789 46.7792 33.8789 47.5273C33.8789 48.2753 34.4861 48.8571 35.2669 48.8571H52.1392C52.9199 48.8571 53.5271 48.2753 53.5271 47.5273C53.4838 46.7792 52.8765 46.1974 52.0958 46.1974ZM35.2669 52.6398H52.0958C52.8765 52.6398 53.5271 53.2216 53.5271 53.9696C53.5271 54.7177 52.9199 55.2995 52.1392 55.2995H35.2669C34.4861 55.2995 33.8789 54.7177 33.8789 53.9696C33.8789 53.2216 34.4861 52.6398 35.2669 52.6398ZM47.325 36.0169C47.325 34.3961 46.7611 33.0247 45.59 32.3183C45.5466 32.2767 45.4599 32.2767 45.4165 32.3183C44.9394 32.6507 44.3322 32.8585 43.6816 32.8585C43.031 32.8585 42.4238 32.6507 41.9466 32.3183C41.9033 32.2767 41.8165 32.2767 41.7732 32.3183C40.6021 33.0247 40.0382 34.4377 40.0382 36.0169C40.0382 37.1389 47.325 37.1389 47.325 36.0169ZM45.8492 30.0741C45.8492 31.2217 44.8782 32.152 43.6805 32.152C42.4828 32.152 41.5118 31.2217 41.5118 30.0741C41.5118 28.9265 42.4828 27.9962 43.6805 27.9962C44.8782 27.9962 45.8492 28.9265 45.8492 30.0741Z" fill="#006BFF"/>
</svg>
