<svg width="88" height="84" viewBox="0 0 88 84" fill="none" xmlns="http://www.w3.org/2000/svg">
<ellipse cx="43.9519" cy="41.6296" rx="43.9519" ry="41.6296" fill="#EBDDFD"/>
<path d="M55.4016 42.7803C51.3969 42.7803 48.1709 45.8161 48.1709 49.5846C48.1709 53.3532 51.434 56.3889 55.4016 56.3889C59.3692 56.3889 62.6323 53.3532 62.6323 49.5846C62.6323 45.8161 59.4063 42.7803 55.4016 42.7803ZM59.3692 48.8867L55.0308 52.9693C54.5116 53.4578 53.6959 53.4578 53.1768 52.9693L51.4711 51.3642C50.9519 50.8757 50.9519 50.108 51.4711 49.6195C51.9902 49.131 52.8059 49.131 53.3251 49.6195L54.1038 50.3523L57.5152 47.142C58.0343 46.6535 58.8501 46.6535 59.3692 47.142C59.8883 47.6305 59.8883 48.3982 59.3692 48.8867Z" fill="#864BD8"/>
<path d="M46.3166 49.5846C46.3166 44.8739 50.3954 41.0356 55.4013 41.0356H56.9216V25.3682C56.9216 24.5656 56.2541 23.9375 55.4013 23.9375H31.1878C30.372 23.9375 29.6675 24.5656 29.6675 25.3682V56.703C29.6675 57.5055 30.3349 58.1336 31.1878 58.1336H55.4013C50.3954 58.1336 46.3166 54.2953 46.3166 49.5846ZM39.7163 47.9446H36.4532C35.6003 47.9446 34.9329 47.3165 34.9329 46.5139C34.9329 45.7114 35.6003 45.0833 36.4532 45.0833H39.7163C40.5691 45.0833 41.2366 45.7114 41.2366 46.5139C41.2366 47.3165 40.5691 47.9446 39.7163 47.9446ZM42.9423 40.4075H36.4532C35.6003 40.4075 34.9329 39.7794 34.9329 38.9768C34.9329 38.1743 35.6003 37.5462 36.4532 37.5462H42.9052C43.758 37.5462 44.4255 38.1743 44.4255 38.9768C44.4255 39.7794 43.758 40.4075 42.9423 40.4075ZM36.4532 32.8704C35.6003 32.8704 34.9329 32.2423 34.9329 31.4397C34.9329 30.6372 35.6003 30.0091 36.4532 30.0091H45.9458C46.7986 30.0091 47.4661 30.6372 47.4661 31.4397C47.4661 32.2423 46.7986 32.8704 45.9458 32.8704H36.4532Z" fill="#864BD8"/>
</svg>
