<svg width="22" height="22" viewBox="0 0 22 22" fill="none" xmlns="http://www.w3.org/2000/svg">
<path d="M10.5644 0.772788C10.7557 0.433465 11.2443 0.433465 11.4356 0.772787L14.6965 6.55822C14.7678 6.6848 14.8907 6.77409 15.0332 6.80283L21.5431 8.11634C21.9249 8.19338 22.0759 8.6581 21.8123 8.94486L17.3177 13.834C17.2194 13.9409 17.1724 14.0854 17.1891 14.2298L17.9516 20.827C17.9963 21.2139 17.601 21.5011 17.2468 21.339L11.2081 18.5752C11.076 18.5148 10.924 18.5148 10.7919 18.5752L4.7532 21.339C4.39902 21.5011 4.0037 21.2139 4.04842 20.827L4.81088 14.2298C4.82756 14.0854 4.78062 13.9409 4.68228 13.834L0.187687 8.94486C-0.0759266 8.65811 0.0750707 8.19338 0.456887 8.11634L6.96683 6.80283C7.10927 6.77409 7.23217 6.6848 7.30352 6.55822L10.5644 0.772788Z" fill="#D4CB98"/>
</svg>
